<svg width="262.847656" height="45.437500" viewBox="0 0 262.848 45.4375" fill="none" xmlns="http://www.w3.org/2000/svg" xmlns:xlink="http://www.w3.org/1999/xlink">
	<desc>
			Created with Pixso.
	</desc>
	<defs/>
	<path id="Каталог" d="M8.2 25.92L16.51 25.92L29.64 44.79L39.04 44.79L23.17 21.68L38.46 0L29.64 0L16.78 18.75L8.2 18.75L8.2 0L0 0L0 44.79L8.2 44.79L8.2 25.92ZM68.52 13.85Q64.52 10.23 56.96 10.23Q52.74 10.23 48.96 11.32Q45.19 12.4 42.51 14.45L45.63 20.28Q47.55 18.68 50.33 17.79Q52.37 17.13 54.45 16.95Q55.23 16.89 56.01 16.89Q60.22 16.89 62.37 18.81Q62.79 19.19 63.14 19.64Q64.52 21.44 64.52 24.31L64.52 24.82L55.69 24.82Q48.32 24.82 44.9 27.6Q43.39 28.83 42.55 30.41Q41.47 32.41 41.47 35Q41.47 36.88 42.11 38.52Q42.47 39.45 43.04 40.29Q43.22 40.56 43.42 40.82Q44.95 42.77 47.49 43.93Q50.38 45.25 54.21 45.25Q58.05 45.25 60.77 44.06Q62.98 43.09 64.36 41.44Q64.68 41.06 64.96 40.64L64.96 44.79L72.52 44.79L72.52 24.76Q72.52 18.13 69.22 14.54Q68.88 14.18 68.52 13.85ZM139.63 13.85Q135.63 10.23 128.06 10.23Q123.84 10.23 120.06 11.32Q116.3 12.4 113.61 14.45L116.74 20.28Q118.66 18.68 121.44 17.79Q123.48 17.13 125.55 16.95Q126.33 16.89 127.11 16.89Q131.33 16.89 133.47 18.81Q133.9 19.19 134.24 19.64Q135.63 21.44 135.63 24.31L135.63 24.82L126.8 24.82Q119.42 24.82 116 27.6Q114.49 28.83 113.65 30.41Q112.58 32.41 112.58 35Q112.58 36.88 113.22 38.52Q113.58 39.45 114.14 40.29Q114.33 40.56 114.53 40.82Q116.06 42.77 118.59 43.93Q121.49 45.25 125.31 45.25Q129.16 45.25 131.88 44.06Q134.08 43.09 135.46 41.44Q135.78 41.06 136.06 40.64L136.06 44.79L143.63 44.79L143.63 24.76Q143.63 18.13 140.32 14.54Q139.99 14.18 139.63 13.85ZM202.14 43.5Q205.92 45.25 210.5 45.25Q215.37 45.25 219.3 43.32Q219.61 43.17 219.91 43.01Q222.28 41.72 224.06 39.87Q225.39 38.47 226.39 36.76Q226.83 36.01 227.19 35.22Q228.73 31.81 228.73 27.7Q228.73 23.57 227.17 20.17Q226.82 19.41 226.39 18.68Q225.43 17.04 224.15 15.7Q222.34 13.79 219.91 12.48Q219.56 12.29 219.21 12.12Q215.32 10.23 210.5 10.23Q205.97 10.23 202.23 11.95Q201.68 12.19 201.16 12.48Q198.74 13.78 196.94 15.66Q195.64 17.02 194.66 18.68Q194.25 19.37 193.92 20.09Q192.33 23.53 192.33 27.7Q192.33 31.86 193.9 35.3Q194.24 36.05 194.66 36.76Q195.67 38.49 197.03 39.9Q198.8 41.74 201.16 43.01Q201.64 43.27 202.14 43.5ZM97.54 17.4L109.51 17.4L109.51 10.62L77.51 10.62L77.51 17.4L89.54 17.4L89.54 44.79L97.54 44.79L97.54 17.4ZM184.52 44.79L184.52 10.62L156.87 10.62L156.29 23.81Q156.04 28.85 155.68 31.57Q155.33 34.29 154.12 36.25Q153.58 37.1 152.81 37.58Q151.82 38.2 150.46 38.2Q149.82 38.2 148.93 38.01L148.55 44.73Q151.18 45.43 152.96 45.43Q155.45 45.43 157.25 44.32Q158.23 43.71 159 42.78Q161.22 40.12 162.15 35.54Q163.07 30.96 163.4 24.18L163.71 17.4L176.52 17.4L176.52 44.79L184.52 44.79ZM244.61 17.4L262.84 17.4L262.84 10.62L236.61 10.62L236.61 44.79L244.61 44.79L244.61 17.4ZM215.39 37.25Q213.24 38.39 210.5 38.39Q207.72 38.39 205.57 37.23Q204.29 36.54 203.23 35.45Q202.6 34.8 202.11 34.05Q200.39 31.44 200.39 27.7Q200.39 23.99 202.09 21.4Q202.59 20.63 203.23 19.96Q204.31 18.85 205.61 18.15Q207.75 17.01 210.5 17.01Q213.22 17.01 215.36 18.13Q216.69 18.83 217.8 19.96Q218.48 20.67 219.01 21.48Q220.67 24.05 220.67 27.7Q220.67 31.38 218.98 33.97Q218.47 34.76 217.8 35.45Q216.71 36.56 215.39 37.25ZM60.55 38.4Q58.46 39.42 55.88 39.42Q52.8 39.42 51.07 38.14Q50.24 37.52 49.81 36.69Q49.35 35.8 49.35 34.68Q49.35 33.31 49.98 32.35Q51.44 30.14 56.26 30.14L64.52 30.14L64.52 34.1Q64.02 35.43 63.15 36.44Q62.34 37.38 61.21 38.04Q60.88 38.23 60.55 38.4ZM131.65 38.4Q129.57 39.42 126.99 39.42Q123.91 39.42 122.17 38.14Q121.34 37.52 120.91 36.69Q120.45 35.8 120.45 34.68Q120.45 33.31 121.09 32.35Q122.54 30.14 127.36 30.14L135.63 30.14L135.63 34.1Q135.12 35.43 134.25 36.44Q133.44 37.38 132.31 38.04Q131.99 38.23 131.65 38.4Z" fill="#FFFFFF" fill-opacity="1.000000" fill-rule="evenodd"/>
</svg>
